# xmcd
#
# Track frame offsets:
#	150
#	14776
#	36717
#	54065
#	67063
#	84426
#	104038
#	123988
#	140596
#	158452
#	171149
#	192021
#	208253
#
# Disc length: 3016 seconds
#
# Revision: 0
# Processed by: cddbd v1.4PL0 Copyright (c) Steve Scherf et al.
# Submitted via: audiograbber 1.82.02
#
DISCID=bb0bc60d
DTITLE=Babara Dex - Enjoy A Taste Of Gospel
DYEAR=2003
DGENRE=Gospel
TTITLE0=Jesus On The Mailine(Radio Edit)
TTITLE1=O Happy Day
TTITLE2=Steal Away
TTITLE3=Nobody Knows
TTITLE4=Rock My Soul
TTITLE5=Old Time Religeon
TTITLE6=Down By The Riverside
TTITLE7=This Little Light Of Mine(Let It Shine)
TTITLE8=In The Upper Room
TTITLE9=Go Tell It On The Mountain
TTITLE10=O Holly Night
TTITLE11=Away In A Manger
TTITLE12=Jesus On The Mainline
EXTD=
EXTT0=
EXTT1=
EXTT2=
EXTT3=
EXTT4=
EXTT5=
EXTT6=
EXTT7=
EXTT8=
EXTT9=
EXTT10=
EXTT11=
EXTT12=
PLAYORDER=
